<svg xmlns="http://www.w3.org/2000/svg" viewBox="0 0 1200 630" width="1200" height="630">
  <defs>
    <linearGradient id="bg480" x1="0%" y1="0%" x2="100%" y2="100%">
      <stop offset="0%" stop-color="#000000"/>
      <stop offset="100%" stop-color="#0a0000"/>
    </linearGradient>
    <linearGradient id="accent480" x1="0%" y1="0%" x2="100%" y2="0%">
      <stop offset="0%" stop-color="#e50914"/>
      <stop offset="100%" stop-color="#ff1744"/>
    </linearGradient>
    <radialGradient id="bloodglow" cx="85%" cy="50%" r="40%">
      <stop offset="0%" stop-color="#e50914" stop-opacity="0.18"/>
      <stop offset="100%" stop-color="#e50914" stop-opacity="0"/>
    </radialGradient>
  </defs>
  <rect width="1200" height="630" fill="url(#bg480)"/>
  <!-- Blood glow from right -->
  <rect width="1200" height="630" fill="url(#bloodglow)"/>
  <!-- Irregular scattered dots (horror motif) -->
  <circle cx="890" cy="130" r="2.5" fill="#e50914" fill-opacity="0.55"/>
  <circle cx="940" cy="160" r="1.5" fill="#ff1744" fill-opacity="0.45"/>
  <circle cx="975" cy="105" r="3" fill="#e50914" fill-opacity="0.40"/>
  <circle cx="1010" cy="175" r="2" fill="#ff1744" fill-opacity="0.50"/>
  <circle cx="1050" cy="120" r="1.5" fill="#e50914" fill-opacity="0.38"/>
  <circle cx="1085" cy="155" r="3.5" fill="#e50914" fill-opacity="0.35"/>
  <circle cx="1115" cy="100" r="2" fill="#ff1744" fill-opacity="0.42"/>
  <circle cx="1145" cy="140" r="1.5" fill="#e50914" fill-opacity="0.30"/>
  <circle cx="870" cy="200" r="1.5" fill="#ff1744" fill-opacity="0.35"/>
  <circle cx="920" cy="220" r="2.5" fill="#e50914" fill-opacity="0.40"/>
  <circle cx="960" cy="240" r="1.5" fill="#ff1744" fill-opacity="0.30"/>
  <circle cx="1000" cy="215" r="2" fill="#e50914" fill-opacity="0.38"/>
  <circle cx="1040" cy="245" r="1" fill="#ff1744" fill-opacity="0.28"/>
  <circle cx="1075" cy="200" r="2.5" fill="#e50914" fill-opacity="0.32"/>
  <circle cx="1110" cy="230" r="1.5" fill="#ff1744" fill-opacity="0.26"/>
  <circle cx="1150" cy="195" r="2" fill="#e50914" fill-opacity="0.28"/>
  <circle cx="880" cy="300" r="2" fill="#ff1744" fill-opacity="0.30"/>
  <circle cx="930" cy="330" r="3" fill="#e50914" fill-opacity="0.28"/>
  <circle cx="970" cy="310" r="1.5" fill="#ff1744" fill-opacity="0.25"/>
  <circle cx="1015" cy="350" r="2" fill="#e50914" fill-opacity="0.30"/>
  <circle cx="1060" cy="320" r="1" fill="#ff1744" fill-opacity="0.22"/>
  <circle cx="1100" cy="355" r="2.5" fill="#e50914" fill-opacity="0.26"/>
  <circle cx="1140" cy="315" r="1.5" fill="#ff1744" fill-opacity="0.22"/>
  <!-- Thin crack lines -->
  <path d="M950,90 L980,160 L960,200" fill="none" stroke="#e50914" stroke-width="0.8" stroke-opacity="0.18"/>
  <path d="M1060,110 L1030,180 L1070,240" fill="none" stroke="#e50914" stroke-width="0.8" stroke-opacity="0.15"/>
  <path d="M1140,130 L1110,210 L1150,280" fill="none" stroke="#e50914" stroke-width="0.6" stroke-opacity="0.12"/>
  <!-- Accent bar -->
  <rect x="80" y="175" width="6" height="280" fill="url(#accent480)" rx="3"/>
  <!-- Badge -->
  <rect x="110" y="175" width="190" height="38" rx="19" fill="#e50914"/>
  <text x="205" y="194" font-family="'Segoe UI','Malgun Gothic',Arial,sans-serif" font-size="17" font-weight="700" fill="white" text-anchor="middle" dominant-baseline="middle">영화추천</text>
  <!-- Titles -->
  <text x="110" y="308" font-family="'Segoe UI','Malgun Gothic',Arial,sans-serif" font-size="84" font-weight="900" fill="white" letter-spacing="-2">넷플릭스 공포</text>
  <text x="110" y="405" font-family="'Segoe UI','Malgun Gothic',Arial,sans-serif" font-size="84" font-weight="900" fill="url(#accent480)" letter-spacing="-2">영화 추천</text>
  <!-- Subtitle -->
  <text x="110" y="462" font-family="'Segoe UI','Malgun Gothic',Arial,sans-serif" font-size="25" fill="#ff8a80" letter-spacing="0.5">밤에 혼자 볼 때 — 진짜 무섭고 잘 만든 작품들</text>
  <!-- Bottom bar -->
  <rect x="0" y="570" width="1200" height="60" fill="#000" fill-opacity="0.60"/>
  <rect x="0" y="570" width="1200" height="3" fill="url(#accent480)"/>
  <text x="600" y="603" font-family="'Segoe UI',Arial,sans-serif" font-size="19" fill="white" fill-opacity="0.55" text-anchor="middle" dominant-baseline="middle" letter-spacing="3">ambitstock.com | R의 필름공장</text>
</svg>
