<svg xmlns="http://www.w3.org/2000/svg" viewBox="0 0 1200 630" width="1200" height="630">
  <defs>
    <linearGradient id="bg479" x1="0%" y1="0%" x2="100%" y2="100%">
      <stop offset="0%" stop-color="#1a0000"/>
      <stop offset="100%" stop-color="#3d0000"/>
    </linearGradient>
    <linearGradient id="accent479" x1="0%" y1="0%" x2="100%" y2="0%">
      <stop offset="0%" stop-color="#e53935"/>
      <stop offset="100%" stop-color="#ef5350"/>
    </linearGradient>
  </defs>
  <rect width="1200" height="630" fill="url(#bg479)"/>
  <!-- 5 film frame decorative elements (right side) -->
  <rect x="820" y="90" width="110" height="155" rx="6" fill="none" stroke="#e53935" stroke-width="1.5" stroke-opacity="0.22"/>
  <rect x="828" y="98" width="94" height="139" rx="4" fill="#e53935" fill-opacity="0.06"/>
  <rect x="828" y="98" width="94" height="18" rx="2" fill="#e53935" fill-opacity="0.12"/>
  <rect x="828" y="219" width="94" height="18" rx="2" fill="#e53935" fill-opacity="0.12"/>
  <rect x="950" y="110" width="110" height="155" rx="6" fill="none" stroke="#e53935" stroke-width="1.5" stroke-opacity="0.18"/>
  <rect x="958" y="118" width="94" height="139" rx="4" fill="#e53935" fill-opacity="0.05"/>
  <rect x="958" y="118" width="94" height="18" rx="2" fill="#e53935" fill-opacity="0.10"/>
  <rect x="958" y="239" width="94" height="18" rx="2" fill="#e53935" fill-opacity="0.10"/>
  <rect x="1080" y="95" width="110" height="155" rx="6" fill="none" stroke="#e53935" stroke-width="1.5" stroke-opacity="0.16"/>
  <rect x="1088" y="103" width="94" height="139" rx="4" fill="#e53935" fill-opacity="0.04"/>
  <rect x="820" y="270" width="110" height="155" rx="6" fill="none" stroke="#e53935" stroke-width="1.2" stroke-opacity="0.18"/>
  <rect x="828" y="278" width="94" height="139" rx="4" fill="#e53935" fill-opacity="0.05"/>
  <rect x="828" y="278" width="94" height="18" rx="2" fill="#e53935" fill-opacity="0.10"/>
  <rect x="950" y="290" width="110" height="155" rx="6" fill="none" stroke="#e53935" stroke-width="1.2" stroke-opacity="0.15"/>
  <rect x="958" y="298" width="94" height="139" rx="4" fill="#e53935" fill-opacity="0.04"/>
  <!-- Number 5 badge -->
  <circle cx="1100" cy="430" r="55" fill="#e53935" fill-opacity="0.18" stroke="#e53935" stroke-width="1.5" stroke-opacity="0.3"/>
  <text x="1100" y="430" font-family="'Segoe UI',Arial,sans-serif" font-size="48" font-weight="900" fill="#ef5350" fill-opacity="0.6" text-anchor="middle" dominant-baseline="middle">5</text>
  <!-- Accent bar -->
  <rect x="80" y="175" width="6" height="280" fill="url(#accent479)" rx="3"/>
  <!-- Badge -->
  <rect x="110" y="175" width="210" height="38" rx="19" fill="#e53935"/>
  <text x="215" y="194" font-family="'Segoe UI','Malgun Gothic',Arial,sans-serif" font-size="17" font-weight="700" fill="white" text-anchor="middle" dominant-baseline="middle">해외반응후기</text>
  <!-- Titles -->
  <text x="110" y="308" font-family="'Segoe UI','Malgun Gothic',Arial,sans-serif" font-size="84" font-weight="900" fill="white" letter-spacing="-2">K드라마 5편</text>
  <text x="110" y="405" font-family="'Segoe UI','Malgun Gothic',Arial,sans-serif" font-size="84" font-weight="900" fill="url(#accent479)" letter-spacing="-2">해외에서 난리</text>
  <!-- Subtitle -->
  <text x="110" y="462" font-family="'Segoe UI','Malgun Gothic',Arial,sans-serif" font-size="25" fill="#ef9a9a" letter-spacing="0.5">외국인이 가장 사랑한 한국 드라마 추천</text>
  <!-- Bottom bar -->
  <rect x="0" y="570" width="1200" height="60" fill="#000" fill-opacity="0.35"/>
  <rect x="0" y="570" width="1200" height="3" fill="url(#accent479)"/>
  <text x="600" y="603" font-family="'Segoe UI',Arial,sans-serif" font-size="19" fill="white" fill-opacity="0.65" text-anchor="middle" dominant-baseline="middle" letter-spacing="3">ambitstock.com | R의 필름공장</text>
</svg>
